PathFileType	4	(X/Y/Z)	/Users/niels/Desktop/University/Third Semester/Perception and Action/Exam/Gymnastics Motion Tracking/Code for Gym Tracking/Analyzed Data/Webcam_Backflip/id20_2_trajectory_Sports2D/id20_2_trajectory_Sports2D_px_person00.trc
DataRate	CameraRate	NumFrames	NumMarkers	Units	OrigDataRate	OrigDataStartFrame	OrigNumFrames
29.714285714285715	29.714285714285715	8	22	m	29.714285714285715	13	105
Frame#	Time	Hip			RHip			RKnee			RAnkle			RBigToe			RSmallToe			RHeel			LHip			LKnee			LAnkle			LBigToe			LSmallToe			LHeel			Neck			Head			Nose			RShoulder			RElbow			RWrist			LShoulder			LElbow			LWrist		
		X1	Y1	Z1	X2	Y2	Z2	X3	Y3	Z3	X4	Y4	Z4	X5	Y5	Z5	X6	Y6	Z6	X7	Y7	Z7	X8	Y8	Z8	X9	Y9	Z9	X10	Y10	Z10	X11	Y11	Z11	X12	Y12	Z12	X13	Y13	Z13	X14	Y14	Z14	X15	Y15	Z15	X16	Y16	Z16	X17	Y17	Z17	X18	Y18	Z18	X19	Y19	Z19	X20	Y20	Z20	X21	Y21	Z21	X22	Y22	Z22
13	0.4375	0.9690812167663224	-0.7316872582319075	0.0	0.9746271215495842	-0.7351266823568393	0.0	0.9848751717349569	-0.9629746524542356	0.0	1.017323003672359	-1.0769355520891204	0.0	0.9473522294384001	-1.1365316201771052	0.0	0.952020353478949	-1.0672092037428167	0.0	1.034854055654432	-1.0793344841776877	0.0	0.9708548124292588	-0.7336649068717935	0.0	0.8966444379396574	-0.9735564915697693	0.0	0.9076692837786494	-1.0811676129718675	0.0	0.8323508322895451	-1.0980309670534476	0.0	0.8568250756006028	-1.165476621343991	0.0	0.934165619130006	-1.0864550353433131	0.0	0.8841922004196398	-0.432668188871635	0.0	0.7956226008961867	-0.3171146315917091	0.0	0.7963392496296053	-0.4112480524702544	0.0	0.9086897438765473	-0.46047651329579425	0.0	0.9114279835714016	-0.6156111649703326	0.0	0.8627599652875044	-0.7361782156699389	0.0	0.9148889684444533	-0.45466094306970967	0.0	0.9650461499960489	-0.59627727975037	0.0	0.9141738711752264	-0.7358085930510971	0.0
14	0.47115384615384615	0.9724612712158106	-0.7342559289414845	0.0	0.9696242291661095	-0.7388497872348943	0.0	0.9899132987291746	-0.9633698188954433	0.0	1.0225633820024858	-1.0762486749017848	0.0	0.954407104307912	-1.12942786193757	0.0	0.9550758971300468	-1.0660753306879265	0.0	1.0404738110816725	-1.0793960584573281	0.0	0.9819729856557008	-0.7363384674974907	0.0	0.9061268630043127	-0.9711972476924351	0.0	0.9133459251097131	-1.0800744285507695	0.0	0.8336205601312076	-1.0950392998244185	0.0	0.8634507448841199	-1.1534894987675084	0.0	0.9381925995761804	-1.0879332534786825	0.0	0.8941748485533317	-0.43493796533886214	0.0	0.804259483609413	-0.320908367367731	0.0	0.80607627984968	-0.4143839667165972	0.0	0.9116354638833084	-0.46454429846554374	0.0	0.9091321471702462	-0.6204192812254218	0.0	0.866149278555623	-0.7390360195326464	0.0	0.9335509447472802	-0.4555799603874112	0.0	0.9933432018747298	-0.5937767997084847	0.0	0.954988517460208	-0.7350503848703913	0.0
15	0.5048076923076923	0.9752740125968861	-0.7361071128078358	0.0	0.9651434879089547	-0.7410319131376123	0.0	0.9935371102836805	-0.9618334258861135	0.0	1.025820107478359	-1.0750141708484062	0.0	0.9595015419222046	-1.1179026085466164	0.0	0.9571536833764429	-1.0652896557226974	0.0	1.0447173700232544	-1.0786678663214055	0.0	0.9912012063154855	-0.7381081924791442	0.0	0.9157645941216087	-0.9673131532403282	0.0	0.9208213039335581	-1.078674733366813	0.0	0.8385650760437681	-1.093033536238293	0.0	0.8721646610368443	-1.1384983684114909	0.0	0.9431917614605929	-1.0881938466932997	0.0	0.9042102814917621	-0.4367428549136988	0.0	0.8134519020431461	-0.32388920566961843	0.0	0.8163776213811205	-0.41662181534021253	0.0	0.9155959880595731	-0.46813498438804757	0.0	0.9097449430108445	-0.6238233371611172	0.0	0.8723417316550509	-0.7411545414814376	0.0	0.9503018308630057	-0.45689344138703886	0.0	1.0161345123385213	-0.5927649359384545	0.0	0.9921527063093334	-0.7358370784723492	0.0
16	0.5384615384615384	0.9780245139019483	-0.7371376599223968	0.0	0.9624202263736695	-0.7415960371153923	0.0	0.9952904089039197	-0.9586041677094899	0.0	1.0260180666792367	-1.0735872211726176	0.0	0.9615161234823005	-1.1051772334600982	0.0	0.9575981250415355	-1.0649438611924382	0.0	1.047226385602676	-1.0771797633190288	0.0	0.9985532182257378	-0.7388164896069515	0.0	0.925230165461971	-0.9624526790443729	0.0	0.9314314785785291	-1.077381754529285	0.0	0.8489571900848917	-1.0918551290965712	0.0	0.8831757818207888	-1.1235839284126627	0.0	0.9516284556931971	-1.0871950605900043	0.0	0.9144008518496792	-0.43789261203851193	0.0	0.8232391877842655	-0.3256404367866736	0.0	0.8271302264207799	-0.4175337399152144	0.0	0.9206660515134873	-0.4708163254217285	0.0	0.9137837225833129	-0.6256086692810958	0.0	0.8812715937236848	-0.7426325343525908	0.0	0.9652805582808356	-0.45830170355745015	0.0	1.0335631685271285	-0.5929789166948677	0.0	1.024490065465941	-0.7374890427803152	0.0
17	0.5721153846153846	0.9812702635476555	-0.7373929838027891	0.0	0.9620649869944912	-0.7408129324375088	0.0	0.9949204658492633	-0.9544273777710801	0.0	1.0224809774758274	-1.072393185347789	0.0	0.9602356429833573	-1.0936973004284445	0.0	0.9563404077097508	-1.065268778687682	0.0	1.0481819305345486	-1.0754789602733987	0.0	1.004569415226189	-0.7385437285373224	0.0	0.9347121866324224	-0.9576178740026893	0.0	0.9464006100145889	-1.0765389557521543	0.0	0.86574589343545	-1.0914266608671146	0.0	0.8969009015878816	-1.1119261583002975	0.0	0.9655868158432033	-1.085549962845217	0.0	0.9248255721590235	-0.4382516559318748	0.0	0.8338261996396018	-0.3258970600804223	0.0	0.8383042485768029	-0.416852490040807	0.0	0.9269321328936312	-0.4722139510161095	0.0	0.9210772935749258	-0.6257479798397209	0.0	0.8924141280308567	-0.7431433623035061	0.0	0.9786867087346081	-0.4594189722954556	0.0	1.046416777165558	-0.5940750667209928	0.0	1.051170376153442	-0.7393302084874377	0.0
18	0.6057692307692307	0.985406121574805	-0.7371018720468676	0.0	0.9641021189358112	-0.7392202696223241	0.0	0.9927172825401943	-0.9502861565609168	0.0	1.0155542315133825	-1.0716586720306633	0.0	0.9569991292967331	-1.0850530291217038	0.0	0.9541545607936541	-1.066509010774156	0.0	1.048329891094319	-1.0741830371139909	0.0	1.0100642377896747	-0.7376299754591056	0.0	0.9448660334600597	-0.9537057252299955	0.0	0.9659659931789283	-1.0761784597411261	0.0	0.8884030387042042	-1.0918736360819032	0.0	0.9141992447056161	-1.1051423594790248	0.0	0.9854009224224528	-1.0839635959403804	0.0	0.935463673244529	-0.4378229488813966	0.0	0.8454501291280089	-0.32468842961449984	0.0	0.8498914657847598	-0.41467899458632124	0.0	0.9343215980593284	-0.47226137468943286	0.0	0.9310645104447706	-0.6244848551690159	0.0	0.9050569296356007	-0.7424108498166212	0.0	0.9907492562901746	-0.45998520630318657	0.0	1.0559105825375745	-0.5956463656481806	0.0	1.0718017405368692	-0.7408763762006894	0.0
19	0.6394230769230769	0.9905930330465545	-0.7366155763721665	0.0	0.9682788193621994	-0.7374958362630663	0.0	0.989845152943952	-0.9471823006228735	0.0	1.0074445291528746	-1.0713709782538254	0.0	0.954503255017594	-1.0801916476615103	0.0	0.9528192598123209	-1.068754847508979	0.0	1.048859170990653	-1.0736840236019547	0.0	1.0157502457651613	-0.7365865792372697	0.0	0.9565082419164633	-0.9512791580391816	0.0	0.9889603231304388	-1.0760904775063345	0.0	0.9154761704099713	-1.0935456712561085	0.0	0.9360890047963659	-1.1032455423887848	0.0	1.0094496674426432	-1.082940894929556	0.0	0.9462036089114745	-0.4367892202752527	0.0	0.8581646801172744	-0.32233339284152895	0.0	0.8618066814941496	-0.41152217699274696	0.0	0.9426843513181743	-0.47128465572872225	0.0	0.9429379892027779	-0.6223629555638583	0.0	0.9184219049469826	-0.7405241155824587	0.0	1.0017176234653375	-0.45999529267804784	0.0	1.0633098972558959	-0.5972740323050855	0.0	1.086459627797451	-0.742000112796465	0.0
20	0.673076923076923	0.9968621766320224	-0.7363086346207254	0.0	0.9743084788551999	-0.7362934590809411	0.0	0.9883033229600957	-0.9459448364275089	0.0	1.0021690500737883	-1.0714486134334766	0.0	0.9553018133854335	-1.0792831393385538	0.0	0.9544294119700597	-1.0718627739842093	0.0	1.0509056408416573	-1.074116795242663	0.0	1.0220781918382769	-0.7359376999393833	0.0	0.9702628532878431	-0.9506173815083547	0.0	1.0137424895625362	-1.0761225788728612	0.0	0.9454997715606421	-1.0966990880326488	0.0	0.9627957921616397	-1.1054411553667978	0.0	1.0356827602894731	-1.0828188957297662	0.0	0.9569497489479599	-0.43547309942490414	0.0	0.871729200416839	-0.31933975986829716	0.0	0.8738622045340647	-0.4081154644767672	0.0	0.9519662228519222	-0.46986878649272446	0.0	0.9557056236651984	-0.6200728254656243	0.0	0.9317185970955896	-0.7379394783317351	0.0	1.0118889913788989	-0.45972337806689184	0.0	1.0696173951754597	-0.5987320310715984	0.0	1.095553052062834	-0.7428819511572513	0.0
